<svg width="575" height="300" xmlns="http://www.w3.org/2000/svg"><g fill="#000" fill-rule="evenodd" opacity=".6"><path opacity=".12" d="M0 275h25v25H0z"/><path opacity=".04" d="M25 275h25v25H25z"/><path opacity=".08" d="M50 275h25v25H50z"/><path opacity=".04" d="M75 275h25v25H75z"/><path opacity=".08" d="M125 275h25v25h-25z"/><path opacity=".04" d="M150 275h25v25h-25z"/><path opacity=".12" d="M175 275h25v25h-25z"/><path opacity=".08" d="M225 275h25v25h-25z"/><path opacity=".04" d="M375 275h25v25h-25z"/><path opacity=".12" d="M275 275h25v25h-25z"/><path opacity=".04" d="M0 250h25v25H0zM50 250h25v25H50z"/><path opacity=".12" d="M75 250h25v25H75z"/><path opacity=".04" d="M125 250h25v25h-25z"/><path opacity=".08" d="M175 250h25v25h-25zM250 250h25v25h-25z"/><path opacity=".12" d="M325 275h25v25h-25z"/><path opacity=".08" d="M450 275h25v25h-25zM500 275h25v25h-25z"/><path opacity=".04" d="M550 275h25v25h-25z"/><path opacity=".12" d="M300 225h25v25h-25zM375 225h25v25h-25z"/><path opacity=".04" d="M425 225h25v25h-25z"/><path opacity=".12" d="M0 225h25v25H0z"/><path opacity=".04" d="M25 225h25v25H25z"/><path opacity=".08" d="M50 200h25v25H50zM100 225h25v25h-25z"/><path opacity=".04" d="M150 225h25v25h-25zM225 225h25v25h-25zM0 200h25v25H0z"/><path opacity=".12" d="M50 150h25v25H50z"/><path opacity=".04" d="M75 200h25v25H75zM125 200h25v25h-25z"/><path opacity=".08" d="M175 200h25v25h-25zM325 200h25v25h-25z"/><path opacity=".04" d="M176 150h25v25h-25z"/><path opacity=".08" d="M25 175h25v25H25z"/><path opacity=".04" d="M0 100h25v25H0z"/><path opacity=".08" d="M50 100h25v25H50zM50 50h25v25H50z"/><path opacity=".12" d="M0 50h25v25H0z"/><path opacity=".08" d="M0 0h25v25H0zM126 150h25v25h-25z"/><path opacity=".12" d="M226 150h25v25h-25zM0 150h25v25H0z"/><path opacity=".04" d="M75 125h25v25H75zM125 75h25v25h-25z"/></g></svg>